<svg  width="762.151" height="182.851" viewBox="0 0 762.151 182.851" xmlns="http://www.w3.org/2000/svg">
<style>
  svg{
    display: block;
    margin:auto;
  }
  .letters_animation {
          animation: rainbow 3s infinite;
        }
		 @keyframes rainbow {
          0% {
            fill: #7694e4";
            transform: translateY(0%);
          }
          33% {
            fill: yellow;
            transform: translateY(2%);
          }
          66% {
            fill: hotpink;
            transform: translateY(2%);
          }
          100% {
            fill: #7694e4;
            transform: translateY(0%);
          }
        }
        .letter_a{
          animation-delay: 100ms;
        }
        .letter_l{
          animation-delay: 200ms;
        }
        .letter_i{
          animation-delay: 300ms;
        }
        .letter_n{
          animation-delay: 400ms;
        }
        .letter_e{
          animation-delay: 500ms;
        }
        .letter_g{
          animation-delay: 600ms;
        }
        .letter_o{
          animation-delay: 700ms;
        }
        .letter_u{
          animation-delay: 800ms;
        }
        .letter_s{
          animation-delay: 900ms;
        }
        .letter_h{
          animation-delay: 1000ms;
        }
</style>
	<g id="svgGroup" stroke-linecap="round" fill-rule="evenodd" font-size="9pt" stroke="#000" stroke-width="0.25mm" fill="none" style="stroke:#000;stroke-width:0.25mm;fill:none">
		<path class="letters_animation letter_a"
		 style="fill: #7694e4" d="M 63.001 76.35 L 52.201 82.2 A 21.464 21.464 0 0 0 48.77 78.389 A 28.461 28.461 0 0 0 45.601 75.975 Q 41.401 73.2 36.601 73.2 A 24.807 24.807 0 0 0 29.075 74.305 A 21.432 21.432 0 0 0 23.251 77.175 A 25.125 25.125 0 0 0 14.838 87.273 A 29.954 29.954 0 0 0 14.551 87.9 A 34.984 34.984 0 0 0 11.738 98.869 A 42.508 42.508 0 0 0 11.551 102.9 A 57.172 57.172 0 0 0 12.029 110.524 Q 12.572 114.549 13.729 117.901 A 27.955 27.955 0 0 0 15.601 122.175 Q 19.651 129.6 28.351 129.6 Q 40.651 129.6 45.301 119.7 A 49.692 49.692 0 0 0 49.922 99.917 A 57.847 57.847 0 0 0 49.951 98.1 L 49.951 91.35 L 63.151 85.8 L 63.151 125.25 A 7.277 7.277 0 0 0 64.066 128.76 A 8.675 8.675 0 0 0 64.201 129 A 3.765 3.765 0 0 0 65.17 130.123 Q 65.934 130.702 66.987 130.786 A 4.593 4.593 0 0 0 67.351 130.8 A 6.724 6.724 0 0 0 71.311 129.448 Q 72.421 128.657 73.474 127.401 A 20.32 20.32 0 0 0 75.301 124.8 L 77.551 127.2 A 18.658 18.658 0 0 1 71.529 135.603 A 22.287 22.287 0 0 1 71.251 135.825 A 19.206 19.206 0 0 1 67.911 137.956 Q 65.611 139.089 63.312 139.301 A 11.532 11.532 0 0 1 62.251 139.35 A 13.65 13.65 0 0 1 58.381 138.833 A 9.837 9.837 0 0 1 52.726 134.55 A 17.8 17.8 0 0 1 50.57 129.553 Q 49.952 127.265 49.75 124.552 A 36.95 36.95 0 0 1 49.651 121.8 L 49.351 121.8 A 38.795 38.795 0 0 1 41.154 133.347 A 37.051 37.051 0 0 1 39.226 135.075 A 25.093 25.093 0 0 1 33.935 138.523 A 18.74 18.74 0 0 1 25.801 140.4 A 29.372 29.372 0 0 1 17.854 139.387 A 20.697 20.697 0 0 1 6.526 131.625 A 30.928 30.928 0 0 1 1.581 121.185 Q 0.001 115.385 0.001 108.15 Q 0.001 96.45 5.251 86.175 A 43.533 43.533 0 0 1 17.099 71.561 A 42.616 42.616 0 0 1 19.576 69.75 Q 28.651 63.6 39.601 63.6 Q 46.951 63.6 53.476 66.75 Q 60.001 69.9 63.001 76.35 Z" id="0" vector-effect="non-scaling-stroke"/>
		<path class="letters_animation letter_l" style="fill: #7694e4" d="M 106.201 0 L 106.201 126 A 6.211 6.211 0 0 0 107.005 129.035 A 7.602 7.602 0 0 0 107.251 129.45 Q 108.25 131.02 110.608 131.096 A 7.553 7.553 0 0 0 110.851 131.1 Q 112.951 131.1 115.276 129.225 A 17.138 17.138 0 0 0 117.18 127.449 A 12.384 12.384 0 0 0 118.801 125.25 L 121.351 127.5 Q 118.801 132.45 114.301 135.9 Q 110.24 139.013 106.18 139.317 A 11.768 11.768 0 0 1 105.301 139.35 A 14.829 14.829 0 0 1 99.862 138.432 Q 92.701 135.622 92.701 124.2 L 92.701 5.7 L 106.201 0 Z" id="1" vector-effect="non-scaling-stroke"/>
		<path class="letters_animation letter_i" style="fill: #7694e4" d="M 151.051 64.2 L 151.051 126 A 7.365 7.365 0 0 0 151.215 127.602 Q 151.479 128.786 152.165 129.661 A 4.698 4.698 0 0 0 152.176 129.675 A 3.653 3.653 0 0 0 154.588 131.041 A 5.402 5.402 0 0 0 155.401 131.1 Q 156.62 131.1 158.044 130.281 A 10.725 10.725 0 0 0 159.076 129.6 A 15.082 15.082 0 0 0 160.733 128.158 Q 161.954 126.942 163.201 125.25 L 165.601 127.5 Q 162.151 133.95 157.276 136.65 Q 153.572 138.701 150.344 139.194 A 13.2 13.2 0 0 1 148.351 139.35 A 13.537 13.537 0 0 1 144.931 138.942 A 9.357 9.357 0 0 1 140.026 135.9 A 9.882 9.882 0 0 1 138.36 132.961 Q 137.3 130.144 137.132 125.861 A 42.465 42.465 0 0 1 137.101 124.2 L 137.101 69.6 L 151.051 64.2 Z M 151.201 13.5 L 146.101 48.45 L 141.151 50.25 L 135.001 19.05 L 151.201 13.5 Z" id="2" vector-effect="non-scaling-stroke"/>
		<path class="letters_animation letter_n" style="fill: #7694e4" d="M 242.701 78.9 L 242.701 83.55 L 242.701 126 A 5.724 5.724 0 0 0 243.071 127.986 A 7.975 7.975 0 0 0 243.751 129.375 A 3.853 3.853 0 0 0 244.643 130.409 Q 245.517 131.1 246.751 131.1 Q 249.301 131.1 251.101 129.45 A 21.424 21.424 0 0 0 252.788 127.705 Q 253.61 126.759 254.432 125.626 A 36.56 36.56 0 0 0 254.701 125.25 L 256.951 127.5 A 22.496 22.496 0 0 1 251.158 135.039 A 26.589 26.589 0 0 1 250.201 135.825 A 21.071 21.071 0 0 1 247.296 137.759 Q 244.372 139.35 241.651 139.35 A 15.43 15.43 0 0 1 237.845 138.907 A 10.613 10.613 0 0 1 232.351 135.6 A 11.636 11.636 0 0 1 230.154 131.742 Q 229.535 129.993 229.264 127.835 A 29.161 29.161 0 0 1 229.051 124.2 L 229.051 84.45 Q 229.051 82.753 228.795 81.482 A 8.718 8.718 0 0 0 228.601 80.7 Q 228.258 79.557 227.13 79.285 A 3.328 3.328 0 0 0 226.351 79.2 A 7.777 7.777 0 0 0 222.087 80.6 Q 219.193 82.485 216.235 86.908 A 53.31 53.31 0 0 0 213.751 91.05 A 137.813 137.813 0 0 0 206.092 107.798 A 167.321 167.321 0 0 0 202.726 117.525 Q 198.753 130.225 198.23 135.403 A 14.067 14.067 0 0 0 198.151 136.8 L 185.101 140.7 L 185.101 76.5 Q 185.101 74.4 183.976 72.675 A 3.83 3.83 0 0 0 182.817 71.503 Q 181.94 70.95 180.751 70.95 A 5.03 5.03 0 0 0 178.234 71.695 Q 176.413 72.745 174.454 75.273 A 31.887 31.887 0 0 0 172.951 77.4 L 170.701 75 Q 172.651 69.6 177.151 65.925 A 19.245 19.245 0 0 1 180.385 63.758 Q 182.547 62.627 184.709 62.344 A 11.103 11.103 0 0 1 186.151 62.25 A 21.064 21.064 0 0 1 189.607 62.514 Q 191.456 62.823 192.919 63.49 A 9.108 9.108 0 0 1 195.526 65.25 A 9.907 9.907 0 0 1 198.285 70.368 A 14.732 14.732 0 0 1 198.601 73.5 L 198.601 112.95 L 199.201 112.95 Q 203.251 99.6 207.001 89.7 Q 210.751 79.8 217.501 71.025 A 27.731 27.731 0 0 1 221.924 66.398 Q 227.016 62.25 233.101 62.25 A 12.421 12.421 0 0 1 235.954 62.553 Q 237.761 62.98 238.997 64.009 A 6.66 6.66 0 0 1 240.901 66.675 A 20.288 20.288 0 0 1 241.925 70.116 Q 242.676 73.667 242.7 78.581 A 66.713 66.713 0 0 1 242.701 78.9 Z" id="3" vector-effect="non-scaling-stroke"/>
		<path class="letters_animation letter_e" style="fill: #7694e4" d="M 331.801 117.75 L 333.601 120.9 A 70.982 70.982 0 0 1 326.755 128.556 Q 322.645 132.5 318.282 135.202 A 44.12 44.12 0 0 1 318.001 135.375 Q 309.976 140.263 298.404 140.396 A 56.583 56.583 0 0 1 297.751 140.4 A 31.762 31.762 0 0 1 287.199 138.686 A 28.9 28.9 0 0 1 281.401 135.9 Q 274.201 131.4 270.151 123.825 Q 266.101 116.25 266.101 107.4 A 42.108 42.108 0 0 1 270.532 88.765 A 50.962 50.962 0 0 1 272.101 85.8 Q 278.101 75.3 288.001 68.775 A 39.663 39.663 0 0 1 299.798 63.411 A 35.57 35.57 0 0 1 308.851 62.25 A 24.863 24.863 0 0 1 315.204 63.024 A 18.947 18.947 0 0 1 322.351 66.6 A 13.994 13.994 0 0 1 327.249 74.68 A 21.83 21.83 0 0 1 327.751 79.5 A 15.622 15.622 0 0 1 326.618 85.131 Q 324.961 89.424 320.88 94.232 A 54.144 54.144 0 0 1 320.326 94.875 A 96.507 96.507 0 0 1 306.577 107.706 A 110.052 110.052 0 0 1 302.926 110.4 A 141.594 141.594 0 0 1 296.977 114.396 Q 290.848 118.277 286.057 120.236 A 41.7 41.7 0 0 1 285.901 120.3 A 28.935 28.935 0 0 0 288.828 124.247 Q 290.659 126.297 292.695 127.629 A 15.752 15.752 0 0 0 294.451 128.625 A 22.72 22.72 0 0 0 300.687 130.559 A 30.757 30.757 0 0 0 305.701 130.95 A 29.829 29.829 0 0 0 316.905 128.707 A 36.556 36.556 0 0 0 320.026 127.275 A 36.683 36.683 0 0 0 329.28 120.58 A 33.844 33.844 0 0 0 331.801 117.75 Z M 301.051 71.7 Q 294.451 71.7 289.276 75.9 Q 284.101 80.1 281.176 86.7 Q 278.251 93.3 278.251 100.35 A 33.19 33.19 0 0 0 279.128 108.161 A 25.419 25.419 0 0 0 282.601 116.25 Q 287.89 113.857 293.92 109.402 A 98.839 98.839 0 0 0 296.251 107.625 A 71.874 71.874 0 0 0 305.293 99.224 A 62.219 62.219 0 0 0 308.701 95.1 A 34.337 34.337 0 0 0 311.335 91.098 Q 312.529 88.948 313.145 86.934 A 14.118 14.118 0 0 0 313.801 82.8 A 13.752 13.752 0 0 0 313.077 78.14 Q 310.763 71.7 301.051 71.7 Z" id="4" vector-effect="non-scaling-stroke"/>
		<path class="letters_animation letter_g" style="fill: #7694e4" d="M 440.251 76.35 L 429.451 82.2 A 20.711 20.711 0 0 0 426.355 77.068 A 17.844 17.844 0 0 0 423.001 73.95 Q 418.801 70.95 413.701 70.95 Q 406.201 70.95 400.576 76.05 A 33.996 33.996 0 0 0 392.321 87.607 A 39.551 39.551 0 0 0 391.876 88.65 A 43.705 43.705 0 0 0 389.618 95.74 A 32.973 32.973 0 0 0 388.801 102.9 A 42.405 42.405 0 0 0 390.013 113.235 A 34.807 34.807 0 0 0 393.226 121.5 A 15.594 15.594 0 0 0 397.803 126.819 Q 401.688 129.6 407.401 129.6 A 18.948 18.948 0 0 0 413.664 128.626 Q 418.996 126.767 421.876 121.363 A 21.134 21.134 0 0 0 422.701 119.625 A 54.458 54.458 0 0 0 426.88 99.716 A 62.633 62.633 0 0 0 426.901 98.1 L 426.901 91.35 L 440.401 85.8 L 440.401 131.7 A 53.353 53.353 0 0 1 438.193 146.605 A 68.313 68.313 0 0 1 435.151 154.95 A 56.792 56.792 0 0 1 425.677 169.965 A 52.108 52.108 0 0 1 420.676 174.9 Q 411.451 182.85 399.901 182.85 A 19.203 19.203 0 0 1 393.995 181.985 A 15.32 15.32 0 0 1 386.851 177.15 L 399.601 166.35 Q 400.651 169.05 403.126 170.7 A 9.443 9.443 0 0 0 406.313 172.034 Q 407.71 172.35 409.351 172.35 Q 420.601 172.35 423.976 164.025 Q 426.68 157.354 427.217 147.939 A 84.971 84.971 0 0 0 427.351 143.1 L 426.901 130.8 A 48.908 48.908 0 0 1 427.003 127.536 Q 427.116 125.854 427.353 124.42 A 20.487 20.487 0 0 1 427.951 121.8 L 426.901 121.8 Q 422.707 128.374 418.727 132.807 A 48.393 48.393 0 0 1 416.176 135.45 Q 411.001 140.4 403.801 140.4 A 31.375 31.375 0 0 1 395.641 139.399 A 21.974 21.974 0 0 1 384.001 131.925 A 30.15 30.15 0 0 1 377.809 118.291 A 42.075 42.075 0 0 1 377.101 110.4 Q 377.101 97.65 382.276 86.475 A 48.767 48.767 0 0 1 390.507 73.942 A 43.91 43.91 0 0 1 396.526 68.475 A 33.543 33.543 0 0 1 408.543 62.61 A 32.022 32.022 0 0 1 416.401 61.65 A 26.115 26.115 0 0 1 429.27 65.086 A 31.308 31.308 0 0 1 430.201 65.625 Q 436.801 69.6 440.251 76.35 Z" id="6" vector-effect="non-scaling-stroke"/>
		<path class="letters_animation letter_o" style="fill: #7694e4" d="M 493.351 62.25 L 496.051 65.4 A 76.311 76.311 0 0 0 486.558 72.513 A 56.216 56.216 0 0 0 478.351 81.45 A 33.623 33.623 0 0 0 472.028 98.987 A 42.331 42.331 0 0 0 471.901 102.3 A 34.058 34.058 0 0 0 473.782 113.318 A 40.3 40.3 0 0 0 474.751 115.875 Q 477.601 122.7 483.301 127.2 A 20.888 20.888 0 0 0 494.996 131.63 A 26.683 26.683 0 0 0 496.951 131.7 A 23.663 23.663 0 0 0 503.756 130.751 A 20.547 20.547 0 0 0 508.426 128.7 Q 513.451 125.7 516.226 120.6 A 23.068 23.068 0 0 0 518.998 109.733 A 27.044 27.044 0 0 0 519.001 109.35 A 25.565 25.565 0 0 0 517.413 100.646 A 34.823 34.823 0 0 0 514.726 94.95 Q 510.451 87.6 503.551 82.5 A 32.583 32.583 0 0 0 497.456 78.899 A 24.605 24.605 0 0 0 489.451 76.8 Q 492.451 73.8 496.651 70.5 Q 500.851 67.2 505.201 64.05 Q 515.551 67.5 521.551 77.175 Q 527.551 86.85 527.551 98.7 Q 527.551 109.2 523.276 118.875 Q 519.001 128.55 510.751 134.625 A 31.204 31.204 0 0 1 494.355 140.58 A 39.467 39.467 0 0 1 491.251 140.7 Q 482.251 140.7 474.676 136.275 Q 467.101 131.85 462.751 124.2 A 33.564 33.564 0 0 1 458.405 107.83 A 39.44 39.44 0 0 1 458.401 107.25 A 46.284 46.284 0 0 1 461.462 90.233 A 42.885 42.885 0 0 1 468.076 78.9 A 49.778 49.778 0 0 1 492.743 62.434 A 60.273 60.273 0 0 1 493.351 62.25 Z" id="7" vector-effect="non-scaling-stroke"/>
		<path class="letters_animation letter_u" style="fill: #7694e4" d="M 606.751 61.5 L 606.751 125.55 A 7.365 7.365 0 0 0 606.915 127.152 Q 607.179 128.336 607.865 129.211 A 4.698 4.698 0 0 0 607.876 129.225 A 3.653 3.653 0 0 0 610.288 130.591 A 5.402 5.402 0 0 0 611.101 130.65 A 4.587 4.587 0 0 0 613.145 130.107 Q 615.622 128.868 618.751 124.8 L 621.001 127.05 A 31.793 31.793 0 0 1 618.74 131.137 Q 617.404 133.159 615.889 134.627 A 14.983 14.983 0 0 1 613.426 136.575 L 609.001 139.35 L 605.101 139.35 Q 601.479 139.35 599.181 137.813 A 7.453 7.453 0 0 1 597.826 136.65 A 9.238 9.238 0 0 1 596.418 134.545 Q 595.022 131.77 594.301 126.975 A 70.073 70.073 0 0 1 593.793 122.512 Q 593.378 117.617 593.28 110.656 A 319.151 319.151 0 0 1 593.251 106.2 Q 593.251 99.884 593.339 95.502 A 245.547 245.547 0 0 1 593.401 93 L 592.201 90 L 591.751 90 Q 587.851 108.45 580.876 124.425 A 39.527 39.527 0 0 1 577.018 131.414 Q 570.676 140.4 561.001 140.4 Q 558.06 140.4 556.105 139.499 A 6.35 6.35 0 0 1 554.026 138 A 9.538 9.538 0 0 1 552.143 134.807 Q 551.601 133.312 551.401 131.475 Q 550.951 127.35 550.951 118.8 L 550.951 76.5 Q 550.951 73.95 549.826 72.45 A 3.575 3.575 0 0 0 547.225 70.973 A 4.698 4.698 0 0 0 546.751 70.95 Q 543.151 70.95 538.651 76.95 L 536.851 74.55 Q 539.251 68.85 542.926 66.075 A 24.83 24.83 0 0 1 545.564 64.32 Q 547.785 63.052 549.826 62.625 Q 552.94 61.973 553.047 62.37 A 0.113 0.113 0 0 1 553.051 62.4 A 0.892 0.892 0 0 0 552.954 62.406 Q 552.816 62.421 552.601 62.475 Q 552.351 62.537 551.894 62.548 A 8.435 8.435 0 0 1 551.701 62.55 Q 563.974 62.55 564.57 75.993 A 31.782 31.782 0 0 1 564.601 77.4 L 564.601 120.6 Q 564.601 123.189 565.062 124.624 A 4.399 4.399 0 0 0 565.351 125.325 Q 566.101 126.75 567.151 126.75 Q 572.465 126.75 577.168 118.197 A 51.504 51.504 0 0 0 579.151 114.15 A 147.863 147.863 0 0 0 585.694 96.068 A 178.066 178.066 0 0 0 588.226 86.4 Q 591.751 71.25 591.751 68.25 L 606.751 61.5 Z" id="8" vector-effect="non-scaling-stroke"/>
		<path class="letters_animation letter_s" style="fill: #7694e4" d="M 627.601 132.6 L 637.651 119.25 A 54.158 54.158 0 0 0 642.237 124.476 A 44.643 44.643 0 0 0 645.226 127.2 A 14.893 14.893 0 0 0 649.098 129.568 A 12.443 12.443 0 0 0 653.851 130.5 Q 660.301 130.5 664.876 126.225 A 14.616 14.616 0 0 0 668.216 121.719 A 13.495 13.495 0 0 0 669.451 115.95 A 12.582 12.582 0 0 0 668.14 110.462 Q 667.305 108.722 665.937 106.991 A 23.798 23.798 0 0 0 665.476 106.425 A 73.671 73.671 0 0 0 662.362 102.973 Q 659.026 99.483 654.301 95.25 A 31.607 31.607 0 0 1 653.828 94.847 Q 652.843 93.991 650.851 92.175 A 66.699 66.699 0 0 1 649.66 91.064 Q 648.39 89.847 647.564 88.903 A 16.687 16.687 0 0 1 647.101 88.35 L 636.601 103.8 L 631.801 100.65 L 643.801 84 A 35.397 35.397 0 0 1 641.886 75.848 A 31.469 31.469 0 0 1 641.701 72.45 A 24.139 24.139 0 0 1 642.135 67.743 Q 642.729 64.757 644.133 62.389 A 14.85 14.85 0 0 1 644.551 61.725 A 10.174 10.174 0 0 1 647.04 59.078 Q 649.296 57.45 652.351 57.45 Q 657.451 57.45 659.776 59.25 Q 662.101 61.05 662.101 64.8 A 17.791 17.791 0 0 1 661.682 68.737 A 14.355 14.355 0 0 1 660.526 72 Q 658.951 75.15 657.151 77.4 A 140.785 140.785 0 0 0 656.373 78.381 Q 655.21 79.861 654.751 80.55 A 15.725 15.725 0 0 0 656.172 82.515 Q 657.817 84.483 660.564 86.819 A 64.409 64.409 0 0 0 661.501 87.6 A 94.143 94.143 0 0 1 664.252 90.032 Q 666.432 92.041 667.951 93.75 A 17.934 17.934 0 0 1 669.921 96.471 Q 670.772 97.895 671.513 99.624 A 34.343 34.343 0 0 1 672.076 101.025 A 24.668 24.668 0 0 1 673.255 105.416 Q 673.647 107.624 673.757 110.162 A 46.946 46.946 0 0 1 673.801 112.2 Q 673.801 120 670.276 126.45 Q 666.751 132.9 660.526 136.65 Q 654.301 140.4 646.501 140.4 A 26.547 26.547 0 0 1 641.476 139.894 Q 639.179 139.451 636.71 138.62 A 44.477 44.477 0 0 1 636.001 138.375 A 22.78 22.78 0 0 1 632.219 136.655 Q 629.309 134.973 627.601 132.6 Z M 652.351 63.3 Q 650.401 63.3 649.876 64.35 A 3.917 3.917 0 0 0 649.599 65.109 Q 649.351 66.056 649.351 67.5 A 16.317 16.317 0 0 0 649.484 69.645 Q 649.667 71.023 650.101 72.15 Q 650.851 74.1 651.151 74.85 Q 652.801 73.8 654.226 71.025 Q 655.13 69.264 655.461 67.834 A 6.835 6.835 0 0 0 655.651 66.3 Q 655.651 64.95 654.826 64.125 A 2.589 2.589 0 0 0 653.794 63.506 Q 653.388 63.371 652.893 63.324 A 5.803 5.803 0 0 0 652.351 63.3 Z" id="9" vector-effect="non-scaling-stroke"/>
		<path class="letters_animation letter_h" style="fill: #7694e4" d="M 706.651 0 L 706.651 106.65 L 707.251 106.65 A 87.947 87.947 0 0 1 709.008 99.044 Q 710.07 95.189 711.546 90.975 A 154.923 154.923 0 0 1 712.576 88.125 A 64.039 64.039 0 0 1 719.699 74.236 A 57.631 57.631 0 0 1 722.851 70.05 Q 729.301 62.25 738.001 62.25 A 10.079 10.079 0 0 1 740.726 62.596 A 6.961 6.961 0 0 1 744.826 65.625 Q 747.001 69 747.376 73.2 A 76.702 76.702 0 0 1 747.573 76.089 Q 747.751 79.556 747.751 84.3 L 747.751 126 Q 747.751 127.8 748.876 129.45 A 3.643 3.643 0 0 0 751.28 130.997 A 5.762 5.762 0 0 0 752.401 131.1 Q 755.925 131.1 759.571 126.324 A 28.555 28.555 0 0 0 760.351 125.25 L 762.151 127.5 A 20.242 20.242 0 0 1 756.038 135.463 A 24.013 24.013 0 0 1 755.476 135.9 A 19.279 19.279 0 0 1 751.89 138.069 A 13.47 13.47 0 0 1 746.251 139.35 A 12.715 12.715 0 0 1 740.995 138.343 Q 735.551 135.894 734.706 127.491 A 32.937 32.937 0 0 1 734.551 124.2 L 734.551 84.45 A 8.031 8.031 0 0 0 733.969 81.386 A 7.722 7.722 0 0 0 733.726 80.85 Q 733.019 79.437 731.488 79.234 A 4.086 4.086 0 0 0 730.951 79.2 Q 723.301 79.2 717.751 91.125 Q 712.201 103.05 709.201 117.375 A 326.985 326.985 0 0 0 708.032 123.201 Q 706.522 131.126 706.257 135.225 A 24.614 24.614 0 0 0 706.201 136.8 L 692.851 140.7 L 692.851 5.7 L 706.651 0 Z" id="10" vector-effect="non-scaling-stroke"/>
	</g>
</svg>
